# This file uses centimeters as units for non-parametric coordinates.

mtllib float.mtl
v -5.000000 -2.000000 5.000000
v 5.000000 -2.000000 5.000000
v -5.000000 0.000000 5.000000
v 5.000000 0.000000 5.000000
v -5.000000 0.000000 -5.000000
v 5.000000 0.000000 -5.000000
v -5.000000 -2.000000 -5.000000
v 5.000000 -2.000000 -5.000000
vt 0.142857 0.000000
vt 0.857143 0.000000
vt 0.857143 0.142857
vt 0.142857 0.142857
vt 0.000000 0.857143
vt 0.000000 0.142857
vt 0.857143 0.857143
vt 0.142857 0.857143
vt 1.000000 0.857143
vt 1.000000 0.142857
vt 0.857143 1.000000
vt 0.142857 1.000000
vn 0.000000 0.000000 1.000000
vn 0.000000 0.000000 1.000000
vn 0.000000 0.000000 1.000000
vn 0.000000 0.000000 1.000000
vn 0.000000 1.000000 0.000000
vn 0.000000 1.000000 0.000000
vn 0.000000 1.000000 0.000000
vn 0.000000 1.000000 0.000000
vn 0.000000 0.000000 -1.000000
vn 0.000000 0.000000 -1.000000
vn 0.000000 0.000000 -1.000000
vn 0.000000 0.000000 -1.000000
vn 1.000000 0.000000 0.000000
vn 1.000000 0.000000 0.000000
vn 1.000000 0.000000 0.000000
vn 1.000000 0.000000 0.000000
vn -1.000000 0.000000 0.000000
vn -1.000000 0.000000 0.000000
vn -1.000000 0.000000 0.000000
vn -1.000000 0.000000 0.000000
s off
usemtl initialShadingGroup
f 1/1/1 2/2/2 4/3/3 3/4/4
f 3/4/5 4/3/6 6/7/7 5/8/8
f 5/8/9 6/7/10 8/11/11 7/12/12
f 2/10/13 8/9/14 6/7/15 4/3/16
f 7/5/17 1/6/18 3/4/19 5/8/20
